<svg width="25" height="25" viewBox="0 0 25 25" fill="none" xmlns="http://www.w3.org/2000/svg">
<path d="M6.89648 6.03442H7.75855V8.62061H6.89648V6.03442Z" fill="#0093FF" fill-opacity="0.8"/>
<path d="M5.17212 9.48267H19.8272V10.3447H5.17212V9.48267Z" fill="#0093FF" fill-opacity="0.8"/>
<path d="M10.345 5.17236H11.207V8.62062H10.345V5.17236Z" fill="#0093FF" fill-opacity="0.8"/>
<path d="M13.7937 3.44824H14.6558V8.62062H13.7937V3.44824Z" fill="#0093FF" fill-opacity="0.8"/>
<path d="M17.2419 6.89648H18.104V8.62061H17.2419V6.89648Z" fill="#0093FF" fill-opacity="0.8"/>
<path d="M0 14.655H24.9998V15.5171H0V14.655Z" fill="#0093FF" fill-opacity="0.8"/>
<path d="M0 0H24.9998V0.862064H0V0Z" fill="#0093FF" fill-opacity="0.8"/>
<path d="M19.8284 12.9309H21.5525V13.793H19.8284V12.9309Z" fill="#0093FF" fill-opacity="0.8"/>
<path d="M2.58643 12.9309H6.03468V13.793H2.58643V12.9309Z" fill="#0093FF" fill-opacity="0.8"/>
<path d="M24.1375 13.793V1.72412H0.861816V13.793H1.72388V12.4999C1.72388 12.2619 1.91688 12.0689 2.15491 12.0689H6.46523C6.57953 12.0689 6.68921 12.1143 6.77003 12.1951C6.85085 12.2759 6.89626 12.3856 6.89626 12.4999V13.793H18.9652V12.4999C18.9652 12.2619 19.1582 12.0689 19.3962 12.0689H21.9824C22.0967 12.0689 22.2064 12.1143 22.2872 12.1951C22.368 12.2759 22.4134 12.3856 22.4134 12.4999V13.793H24.1375ZM20.6893 10.7758C20.6893 10.8901 20.6439 10.9998 20.563 11.0806C20.4822 11.1614 20.3725 11.2068 20.2582 11.2068H4.7411C4.50307 11.2068 4.31007 11.0138 4.31007 10.7758V9.05166C4.31007 8.81363 4.50307 8.62063 4.7411 8.62063H6.0342V5.60341C6.0342 5.36538 6.2272 5.17237 6.46523 5.17237H8.18936C8.30366 5.17237 8.41334 5.21779 8.49416 5.29861C8.57497 5.37942 8.62039 5.48911 8.62039 5.60341V8.62063H9.48245V4.74134C9.48245 4.50332 9.67546 4.31031 9.91348 4.31031H11.6376C11.7519 4.31031 11.8616 4.35572 11.9424 4.43654C12.0232 4.51736 12.0686 4.62704 12.0686 4.74134V8.62063H12.9307V3.01722C12.9307 2.77919 13.1237 2.58618 13.3617 2.58618H15.0859C15.2002 2.58618 15.3098 2.6316 15.3907 2.71242C15.4715 2.79323 15.5169 2.90292 15.5169 3.01722V8.62063H16.379V6.46547C16.379 6.22744 16.572 6.03444 16.81 6.03444H18.5341C18.6484 6.03444 18.7581 6.07985 18.8389 6.16067C18.9197 6.24149 18.9652 6.35117 18.9652 6.46547V8.62063H20.2582C20.3725 8.62063 20.4822 8.66604 20.563 8.74686C20.6439 8.82768 20.6893 8.93736 20.6893 9.05166V10.7758Z" fill="#0093FF" fill-opacity="0.8"/>
<path d="M12.5 21.5518C11.8144 21.5525 11.1569 21.8252 10.672 22.3099C10.1873 22.7948 9.91461 23.4523 9.91382 24.1379V25H15.0862V24.1379C15.0854 23.4523 14.8128 22.7948 14.328 22.3099C13.8431 21.8252 13.1856 21.5525 12.5 21.5518Z" fill="#0093FF" fill-opacity="0.8"/>
<path d="M7.75831 19.3966C7.75831 20.1107 7.1793 20.6897 6.46521 20.6897C5.75113 20.6897 5.17212 20.1107 5.17212 19.3966C5.17212 18.6825 5.75113 18.1035 6.46521 18.1035C7.1793 18.1035 7.75831 18.6825 7.75831 19.3966Z" fill="#0093FF" fill-opacity="0.8"/>
<path d="M6.46534 21.5518C5.77973 21.5525 5.1222 21.8252 4.63732 22.3099C4.15261 22.7948 3.87994 23.4523 3.87915 24.1379V25H9.05153V24.1379C9.05076 23.4523 8.7781 22.7948 8.29336 22.3099C7.80845 21.8252 7.15095 21.5525 6.46534 21.5518Z" fill="#0093FF" fill-opacity="0.8"/>
<path d="M19.8281 19.3966C19.8281 20.1107 19.2491 20.6897 18.535 20.6897C17.821 20.6897 17.2419 20.1107 17.2419 19.3966C17.2419 18.6825 17.821 18.1035 18.535 18.1035C19.2491 18.1035 19.8281 18.6825 19.8281 19.3966Z" fill="#0093FF" fill-opacity="0.8"/>
<path d="M18.5352 21.5518C17.8496 21.5525 17.192 21.8252 16.7071 22.3099C16.2224 22.7948 15.9498 23.4523 15.949 24.1379V25H21.1214V24.1379C21.1206 23.4523 20.8479 22.7948 20.3632 22.3099C19.8783 21.8252 19.2208 21.5525 18.5352 21.5518Z" fill="#0093FF" fill-opacity="0.8"/>
<path d="M13.794 19.3966C13.794 20.1107 13.2149 20.6897 12.5009 20.6897C11.7868 20.6897 11.2078 20.1107 11.2078 19.3966C11.2078 18.6825 11.7868 18.1035 12.5009 18.1035C13.2149 18.1035 13.794 18.6825 13.794 19.3966Z" fill="#0093FF" fill-opacity="0.8"/>
</svg>
