<svg width="23" height="23" viewBox="0 0 23 23" fill="none" xmlns="http://www.w3.org/2000/svg">
<path d="M4.8063 0C2.15185 0 0 2.15185 0 4.80629V18.1937C0 20.8481 2.15185 23 4.80629 23H18.1937C20.8481 23 23 20.8481 23 18.1937V4.8063C23 2.15185 20.8481 0 18.1937 0H4.8063ZM14.6707 7.23496C14.8319 7.22605 15.0023 7.28469 15.1524 7.43907L18.9267 10.9932C18.9268 10.9934 18.927 10.9934 18.9272 10.9934C18.9273 10.9934 18.9275 10.9935 18.9276 10.9936C18.9844 11.0378 19.0332 11.0912 19.0722 11.1517C19.077 11.1587 19.0811 11.1656 19.0857 11.1728C19.0938 11.1865 19.1012 11.2004 19.1082 11.2147C19.1134 11.2239 19.1187 11.2332 19.1232 11.2427C19.1233 11.2431 19.1237 11.2434 19.1241 11.2438C19.1242 11.244 19.1242 11.2442 19.1242 11.2444C19.1242 11.2445 19.1243 11.2447 19.1243 11.2448C19.1416 11.2809 19.1549 11.3172 19.1642 11.3539C19.1645 11.355 19.1649 11.3558 19.1652 11.3569C19.1654 11.3576 19.1656 11.3582 19.1658 11.3589C19.1733 11.3897 19.1781 11.4206 19.1802 11.4512C19.1818 11.4674 19.1825 11.4837 19.1827 11.5001C19.1825 11.5165 19.1818 11.5327 19.1802 11.5489C19.1779 11.5796 19.1733 11.61 19.1658 11.6407C19.1656 11.6414 19.1654 11.642 19.1652 11.6427C19.1651 11.6437 19.1645 11.6446 19.1642 11.6457C19.1549 11.6823 19.1416 11.7186 19.1244 11.7547C19.1243 11.7549 19.1242 11.7551 19.1242 11.7553C19.1242 11.7554 19.1242 11.7556 19.1241 11.7557C19.1238 11.7565 19.1231 11.7572 19.1228 11.758C19.1194 11.7648 19.1155 11.7717 19.1118 11.7785C19.1043 11.794 19.0961 11.8092 19.0873 11.824C19.0831 11.8307 19.08 11.8377 19.0754 11.8445C19.0365 11.9049 18.9879 11.9584 18.9312 12.0028L15.1522 15.5605C14.5516 16.1787 13.6305 15.2576 14.2488 14.6571C15.2094 13.7525 14.5693 12.1389 13.2498 12.1389H12.4932C12.0267 12.1389 11.5794 12.3244 11.2495 12.6541C10.8377 13.0656 10.4161 13.4866 10.0357 13.8679C9.77022 14.1339 9.33365 14.1144 9.09284 13.826L7.63354 12.0751C6.94213 11.2455 5.68766 11.1887 4.92404 11.9523C4.32134 12.5548 3.41772 11.6507 4.02061 11.0483L5.93727 9.13163C6.05332 9.01576 6.20948 8.94892 6.37348 8.945C6.56832 8.94036 6.75478 9.02486 6.87957 9.17459L8.33927 10.9261C9.03043 11.7554 10.2853 11.8132 11.0477 11.0489C11.1677 10.9287 11.3304 10.8612 11.5001 10.8612H13.2494C14.5692 10.8612 15.2094 9.24716 14.2485 8.34252C13.7852 7.89205 14.1873 7.26138 14.6708 7.23496L14.6707 7.23496Z" fill="#0093FF" fill-opacity="0.8"/>
</svg>
