<svg width="41" height="21" viewBox="0 0 41 21" fill="none" xmlns="http://www.w3.org/2000/svg">
<path d="M16.5388 10.6291H18.602V9.47243C18.4505 9.39348 18.3047 9.30368 18.1656 9.20419C17.9821 9.04424 17.8172 8.86433 17.6737 8.66741C17.2719 8.12915 17.055 7.47498 17.0562 6.80293V5.46701C17.4374 5.54126 17.8246 5.57824 18.2128 5.57765C19.584 5.57765 20.7703 5.13156 21.3414 4.48358C21.5692 4.73099 21.8421 4.93262 22.1456 5.07789C22.508 5.25633 22.8925 5.38547 23.2893 5.46236V6.80301C23.2887 7.72488 22.8816 8.59972 22.1767 9.19371C22.1517 9.21543 22.1253 9.2348 22.0974 9.25241L21.7611 9.47194V10.6294L23.8081 10.6291C23.8387 10.6291 23.8683 10.6274 23.8994 10.625H25.1857V5.01303C25.1857 3.68357 24.6575 2.40836 23.7174 1.4683C22.7774 0.527953 21.5022 0 20.1727 0C18.8432 0 17.568 0.527975 16.628 1.4683C15.6879 2.40836 15.1597 3.6835 15.1597 5.01303V10.625H16.446C16.4771 10.6274 16.5085 10.6291 16.5387 10.6291L16.5388 10.6291Z" fill="#0093FF" fill-opacity="0.8"/>
<path d="M4.30504 7.38554C4.47438 7.82518 4.72208 8.23077 5.03611 8.58239C5.50481 9.16056 6.20216 9.50629 6.94612 9.52973C7.6901 9.55321 8.40736 9.2521 8.91187 8.70478C8.94592 8.66751 8.97996 8.62995 9.01048 8.59267C9.32715 8.23785 9.57691 7.82903 9.7483 7.3856C10.0098 7.30636 10.239 7.14524 10.4025 6.9263C10.5657 6.70735 10.6549 6.44175 10.6563 6.16851V5.40337C10.6566 5.09668 10.475 4.81875 10.1938 4.69607V3.40064C10.2012 2.60973 9.8296 1.86277 9.19418 1.39146C8.56935 0.925703 7.80747 0.680353 7.02828 0.69444C7.02828 0.69444 6.98748 0.690918 6.91616 0.690918C6.17482 0.707059 5.45635 0.951536 4.85912 1.39146C4.22461 1.86309 3.85453 2.61033 3.86302 3.40065V4.69607C3.57981 4.81728 3.39668 5.0955 3.39697 5.40337V6.16852C3.39785 6.44175 3.48649 6.70765 3.64996 6.9269C3.81343 7.14613 4.04323 7.30696 4.30502 7.38562L4.30504 7.38554ZM6.90265 5.39657C6.29074 5.15504 5.72286 4.8322 5.72286 4.12165C5.72344 3.83757 5.8247 3.56315 6.00813 3.34689C6.19185 3.1303 6.446 2.98561 6.7257 2.93836V2.24486H7.40218V2.89757H7.40247C7.68539 2.91547 7.96009 2.99941 8.20488 3.14233L8.29997 3.19663L8.0417 3.88338L7.90582 3.80854L7.90552 3.80883C7.67279 3.66884 7.40543 3.59577 7.13369 3.59782C6.70873 3.59782 6.55905 3.82556 6.55905 4.0398C6.55905 4.29484 6.72576 4.43777 7.30363 4.67901C8.08222 4.99509 8.41536 5.39658 8.41536 6.01877H8.41565C8.41154 6.31548 8.30471 6.60133 8.11278 6.82764C7.92113 7.05421 7.657 7.20682 7.36498 7.25994V7.97722H6.68174V7.29721C6.33837 7.27696 6.00585 7.16926 5.71615 6.98436L5.63456 6.92654L5.88608 6.22952L6.02549 6.32138C6.28904 6.49425 6.59749 6.58639 6.91272 6.58669C7.30717 6.58669 7.57247 6.37596 7.57247 6.06634C7.57247 5.7843 7.37877 5.58708 6.90274 5.3966L6.90265 5.39657Z" fill="#0093FF" fill-opacity="0.8"/>
<path d="M13.2758 12.8115L13.2104 12.4047H13.2107C13.1452 11.9945 12.8864 11.6405 12.5154 11.4539L9.6918 10.0205L7.89036 14.7991L7.43018 11.9018L7.73482 11.2497V11.2494C7.74039 11.2371 7.73922 11.2224 7.73188 11.2109C7.72454 11.1995 7.71192 11.1925 7.69813 11.1922H6.35485C6.34105 11.1925 6.32843 11.1995 6.32109 11.2109C6.31346 11.2224 6.31258 11.2371 6.31787 11.2494L6.6225 11.9015L6.16232 14.7988L4.36088 10.0205L1.53757 11.4539C1.1666 11.6405 0.907752 11.9945 0.842305 12.4048L0 17.6432H11.9678L12.528 14.1631C12.6137 13.6398 12.8782 13.1623 13.2761 12.8116L13.2758 12.8115Z" fill="#0093FF" fill-opacity="0.8"/>
<path d="M21.7033 12.635C21.3538 13.0506 20.8384 13.2907 20.2952 13.2907C19.752 13.2907 19.2366 13.0506 18.8868 12.635C18.7744 12.4745 18.5531 12.4354 18.3926 12.5478C18.232 12.6602 18.193 12.8818 18.3054 13.0424C18.7882 13.6478 19.5207 14.0003 20.2949 14.0003C21.0694 14.0003 21.8017 13.6478 22.2844 13.0424C22.3971 12.8818 22.3581 12.6605 22.1975 12.5478C22.0373 12.4354 21.816 12.4745 21.7033 12.635H21.7033Z" fill="#0093FF" fill-opacity="0.8"/>
<path d="M30.9852 7.38543C31.1565 7.82888 31.4063 8.23773 31.723 8.5925C31.7535 8.62978 31.7875 8.66734 31.8216 8.70462C32.3261 9.25197 33.0434 9.55308 33.7873 9.52957C34.5316 9.50609 35.2287 9.16036 35.6976 8.58223C36.0114 8.23063 36.2591 7.82504 36.4284 7.38537C36.6902 7.30672 36.92 7.14589 37.0835 6.92665C37.247 6.70742 37.3356 6.44153 37.3365 6.16827V5.40313C37.3368 5.09526 37.1536 4.81704 36.8704 4.69583V3.4004C36.8792 2.61001 36.5088 1.86282 35.8743 1.39122C35.2774 0.95099 34.5589 0.706226 33.8173 0.690674C33.746 0.690674 33.7052 0.694196 33.7052 0.694196C32.926 0.680108 32.1641 0.925459 31.5393 1.39122C30.905 1.86373 30.5341 2.60978 30.5396 3.4004V4.69582C30.2585 4.8185 30.0768 5.09643 30.0774 5.40312V6.16827C30.0789 6.4415 30.1678 6.70711 30.331 6.92605C30.4944 7.14499 30.7236 7.30611 30.9851 7.38536L30.9852 7.38543ZM33.5863 5.39646C32.9709 5.15493 32.403 4.83209 32.403 4.12155C32.4039 3.83716 32.5054 3.56217 32.6897 3.34558C32.8737 3.12899 33.1288 2.9846 33.4093 2.93822V2.24472H34.0858V2.89743C34.3678 2.91533 34.6414 2.99927 34.885 3.14219L34.9836 3.19649L34.7218 3.88324L34.5892 3.8084V3.8087C34.3547 3.66929 34.0867 3.59651 33.8141 3.59768C33.3891 3.59768 33.2395 3.82542 33.2395 4.03967C33.2395 4.2947 33.4062 4.43763 33.984 4.67887C34.7662 4.99495 35.0993 5.39645 35.0993 6.01863C35.0949 6.31563 34.9875 6.60207 34.7952 6.82863C34.603 7.0549 34.3377 7.20752 34.0451 7.25976V7.97704H33.3616L33.3618 7.29703C33.0194 7.27737 32.688 7.16966 32.3995 6.98417L32.3179 6.92636L32.5662 6.22933L32.7091 6.3212H32.7088C32.9715 6.49377 33.2788 6.58592 33.5931 6.5865C33.9908 6.5865 34.2561 6.37578 34.2561 6.06616C34.2561 5.78412 34.0621 5.5869 33.5861 5.39642L33.5863 5.39646Z" fill="#0093FF" fill-opacity="0.8"/>
<path d="M39.5038 12.4052C39.4384 11.9949 39.1798 11.641 38.8086 11.4544L35.985 10.021L34.1835 14.7992L33.7236 11.902L34.0283 11.2499C34.0336 11.2376 34.0327 11.2229 34.025 11.2114C34.0177 11.2 34.0051 11.1929 33.9913 11.1926H32.648C32.6342 11.1929 32.6216 11.2 32.6143 11.2114C32.6069 11.2229 32.6058 11.2376 32.6113 11.2499L32.916 11.902L32.4561 14.7992L30.6546 10.021L27.831 11.4544H27.8307C27.4598 11.641 27.2009 11.995 27.1355 12.4052L27.0703 12.812C27.4683 13.1627 27.7327 13.6402 27.8184 14.1635L28.3787 17.6436H40.3464L39.5038 12.4052Z" fill="#0093FF" fill-opacity="0.8"/>
<path d="M27.0108 14.2933C26.9368 13.8316 26.6466 13.4337 26.2298 13.2217L23.7232 11.9521L22.9604 12.351L23.8702 13.3938C22.7579 14.2448 21.5071 14.8981 20.1732 15.3255C18.8393 14.8982 17.5885 14.2448 16.4761 13.3938L17.3859 12.351L16.6232 11.9521L14.1166 13.2217C13.6998 13.4336 13.4095 13.8319 13.3356 14.2933L12.7404 17.992L12.3867 20.1899H27.9593L27.6057 17.992L27.0108 14.2933Z" fill="#0093FF" fill-opacity="0.8"/>
</svg>
