<svg width="34" height="22" viewBox="0 0 34 22" fill="none" xmlns="http://www.w3.org/2000/svg">
<path d="M11.4084 5.96561C11.8806 4.89936 12.9506 4.15401 14.1977 4.15401C15.4413 4.15401 16.5111 4.89936 16.9871 5.96561H25.6322V4.96565C24.5253 4.74426 23.6472 3.86988 23.4258 2.76294H4.97031C4.74892 3.86988 3.87092 4.74425 2.76392 4.96565V9.4413C3.2584 9.54103 3.70851 9.76973 4.07372 10.0906V7.65161C4.07372 6.72188 4.83006 5.96555 5.76004 5.96555L11.4084 5.96561Z" fill="#0093FF" fill-opacity="0.8"/>
<path d="M2.21048 10.4935C1.90424 10.4935 1.65699 10.2463 1.65699 9.94001V4.46809C1.65699 4.16185 1.90423 3.91461 2.21048 3.91461C3.15139 3.91461 3.9187 3.15097 3.9187 2.21C3.9187 1.90376 4.16594 1.65652 4.47219 1.65652H23.9239C24.2301 1.65652 24.4774 1.90376 24.4774 2.21C24.4774 3.15091 25.2447 3.91461 26.1856 3.91461C26.4918 3.91461 26.7391 4.16185 26.7391 4.46809V5.96616H28.3959V0.94459C28.3959 0.42427 27.9716 0 27.4477 0H0.948211C0.424233 0 0 0.424257 0 0.94459V13.4596C0 13.9836 0.424257 14.4079 0.948211 14.4079H4.07329V12.5813C3.97747 12.4816 3.91822 12.349 3.91822 12.1976C3.91846 11.2569 3.1509 10.4932 2.20999 10.4932L2.21048 10.4935Z" fill="#0093FF" fill-opacity="0.8"/>
<path d="M28.2375 9.46704H9.78135C9.55995 10.574 8.68196 11.4484 7.57495 11.6698V16.1454C8.68189 16.3668 9.55995 17.2412 9.78135 18.3481H28.2368C28.4582 17.2412 29.3362 16.3668 30.4432 16.1454V11.6698C29.3365 11.4484 28.4585 10.574 28.2371 9.46704H28.2375ZM19.0094 16.9574C17.327 16.9574 15.9579 15.5922 15.9579 13.9098C15.9579 12.2235 17.3268 10.8583 19.0094 10.8583C20.6955 10.8583 22.0606 12.2235 22.0606 13.9098C22.0609 15.5922 20.6957 16.9574 19.0094 16.9574Z" fill="#0093FF" fill-opacity="0.8"/>
<path d="M32.259 6.70386H5.75949C5.23551 6.70386 4.81128 7.12812 4.81128 7.65207V20.1671C4.81128 20.6874 5.23554 21.1117 5.75949 21.1117H32.259C32.7829 21.1117 33.2072 20.6875 33.2072 20.1671V7.65207C33.2072 7.12809 32.7829 6.70386 32.259 6.70386ZM31.5506 16.6441C31.5506 16.9504 31.3034 17.1976 30.9971 17.1976C30.0562 17.1976 29.2889 17.9612 29.2889 18.9022C29.2889 19.2085 29.0417 19.4557 28.7354 19.4557L9.28309 19.4555C8.97685 19.4555 8.72961 19.2082 8.72961 18.902C8.72961 17.9611 7.96229 17.1974 7.02138 17.1974C6.71514 17.1974 6.4679 16.9501 6.4679 16.6439V11.1722C6.4679 10.866 6.71514 10.6187 7.02138 10.6187C7.96229 10.6187 8.72961 9.85509 8.72961 8.91412C8.72961 8.60788 8.97685 8.36063 9.28309 8.36063H28.7348C29.041 8.36063 29.2883 8.60787 29.2883 8.91412C29.2883 9.85502 30.0559 10.6187 30.9965 10.6187C31.3028 10.6187 31.55 10.866 31.55 11.1722L31.5506 16.6441Z" fill="#0093FF" fill-opacity="0.8"/>
</svg>
