<svg width="25" height="23" viewBox="0 0 25 23" fill="none" xmlns="http://www.w3.org/2000/svg">
<path d="M21.2598 0.438388V2.11433C21.2598 2.45605 21.399 2.76616 21.6241 2.99216C21.8486 3.21659 22.1602 3.35654 22.502 3.35654H24.1779L21.2598 0.438388ZM8.74235 19.7062C8.57201 19.7062 8.43275 19.5678 8.43275 19.3966C8.43275 19.2252 8.57201 19.087 8.74235 19.087H15.938C16.1099 19.087 16.2492 19.2254 16.2492 19.3966C16.2492 19.5679 16.1099 19.7062 15.938 19.7062H8.74235ZM14.661 16.5114C14.4891 16.5114 14.3499 16.3721 14.3499 16.2002C14.3499 16.0299 14.4891 15.8906 14.661 15.8906H21.8567C22.0286 15.8906 22.1663 16.0299 22.1663 16.2002C22.1663 16.3721 22.0279 16.5114 21.8567 16.5114H14.661ZM14.661 13.3156C14.4891 13.3156 14.3499 13.1772 14.3499 13.006C14.3499 12.8341 14.4891 12.6948 14.661 12.6948H21.8567C22.0286 12.6948 22.1663 12.8341 22.1663 13.006C22.1663 13.1779 22.0279 13.3156 21.8567 13.3156H14.661ZM14.661 9.90326C14.4891 9.90326 14.3499 9.76485 14.3499 9.59365C14.3499 9.42228 14.4891 9.2825 14.661 9.2825H21.8567C22.0286 9.2825 22.1663 9.42177 22.1663 9.59365C22.1663 9.76554 22.0279 9.90326 21.8567 9.90326H14.661ZM14.661 6.99043C14.4891 6.99043 14.3499 6.85116 14.3499 6.67928C14.3499 6.50739 14.4891 6.36967 14.661 6.36967H21.8567C22.0286 6.36967 22.1663 6.50808 22.1663 6.67928C22.1663 6.85065 22.0279 6.99043 21.8567 6.99043H14.661ZM9.6844 7.48721C8.65738 6.46173 7.23934 5.82656 5.67176 5.82656C4.10606 5.82656 2.6882 6.46173 1.66065 7.48721C0.635167 8.51476 0 9.9328 0 11.4999C0 13.0656 0.635167 14.4834 1.66065 15.511C2.68767 16.5364 4.10571 17.1716 5.67176 17.1716C7.23882 17.1716 8.65685 16.5364 9.6844 15.511C10.7099 14.4839 11.345 13.0659 11.345 11.4999C11.345 9.9328 10.7099 8.51476 9.6844 7.48721ZM5.9829 5.21403C7.59634 5.29233 9.05165 5.97871 10.1225 7.04951C11.2613 8.18832 11.9663 9.7614 11.9663 11.5004C11.9663 13.2378 11.2618 14.8109 10.1225 15.9495C9.05213 17.0214 7.59616 17.7082 5.9829 17.786V21.7578C5.9829 22.0995 6.12216 22.4112 6.34728 22.6356C6.57172 22.8601 6.882 23 7.22374 23H23.3748C23.7165 23 24.0266 22.8607 24.2513 22.6356C24.4773 22.4112 24.6157 22.0998 24.6157 21.7578L24.6155 3.9732C24.6002 3.97474 24.5835 3.97611 24.5667 3.97611H22.5013C21.9879 3.97611 21.5231 3.76834 21.1853 3.43058C20.8475 3.09282 20.6397 2.62797 20.6397 2.11453L20.6399 0H7.22355C6.88184 0 6.57172 0.138401 6.34709 0.364383C6.12266 0.588817 5.98271 0.899103 5.98271 1.24084L5.9829 5.21403ZM8.8188 12.2299C9.11861 12.5297 9.26837 12.9221 9.26837 13.3155C9.26837 13.7079 9.11915 14.0997 8.8188 14.3997C8.51898 14.6985 8.12662 14.8493 7.73424 14.8493C7.34186 14.8493 6.94846 14.6987 6.64967 14.3997C6.34986 14.0999 6.2001 13.7075 6.2001 13.3155C6.2001 12.9221 6.34932 12.5297 6.64967 12.2299C6.94846 11.9311 7.34186 11.7804 7.73424 11.7804C8.12662 11.7804 8.519 11.9311 8.8188 12.2299ZM8.38058 12.6692C8.20182 12.4904 7.96743 12.4013 7.7346 12.4013C7.50021 12.4013 7.26683 12.4904 7.08861 12.6692C6.91037 12.8479 6.82074 13.0808 6.82074 13.3152C6.82074 13.548 6.90985 13.7829 7.08861 13.9601C7.26737 14.1389 7.50022 14.228 7.7346 14.228C7.96744 14.228 8.20237 14.1389 8.38058 13.9601C8.55933 13.7829 8.64691 13.5485 8.64691 13.3152C8.64742 13.0811 8.55933 12.8477 8.38058 12.6692ZM8.61652 8.22446C8.73809 8.10289 8.93316 8.10289 9.05474 8.22446C9.17631 8.34603 9.17631 8.54248 9.05474 8.66268L3.08287 14.6359C2.9613 14.7574 2.76485 14.7574 2.64328 14.6359C2.52308 14.5143 2.52308 14.3178 2.64328 14.1963L8.61652 8.22446ZM3.96475 8.01067C4.35712 8.01067 4.74898 8.15989 5.04931 8.46025C5.3481 8.76006 5.49888 9.15243 5.49888 9.54446C5.49888 9.93631 5.34829 10.3302 5.04931 10.629C4.7495 10.9288 4.35713 11.0786 3.96475 11.0786C3.57135 11.0786 3.17898 10.9294 2.87917 10.629C2.58039 10.3302 2.4296 9.93684 2.4296 9.54446C2.4296 9.15208 2.5802 8.76022 2.87917 8.46025C3.1795 8.16043 3.57153 8.01067 3.96475 8.01067ZM4.60972 8.89843C4.43251 8.72122 4.19811 8.6321 3.96475 8.6321C3.73036 8.6321 3.49698 8.72122 3.31877 8.89843C3.14001 9.07719 3.05089 9.31158 3.05089 9.54441C3.05089 9.7788 3.14001 10.0122 3.31877 10.1904C3.49752 10.3692 3.73037 10.4583 3.96475 10.4583C4.1976 10.4583 4.43252 10.3692 4.60972 10.1904C4.78847 10.0116 4.8776 9.77879 4.8776 9.54441C4.8776 9.31139 4.78848 9.07717 4.60972 8.89843ZM8.74206 2.94591C8.57172 2.94591 8.43246 2.80664 8.43246 2.6363C8.43246 2.46441 8.57172 2.32515 8.74206 2.32515H15.9378C16.1096 2.32515 16.2489 2.46442 16.2489 2.6363C16.2489 2.80664 16.1096 2.94591 15.9378 2.94591H8.74206Z" fill="#0093FF" fill-opacity="0.8"/>
</svg>
